<svg width="120" height="34" viewBox="0 0 120 34" fill="none" xmlns="http://www.w3.org/2000/svg" role="img" aria-label="SPARKZ">
  <rect x="0.5" y="0.5" width="119" height="33" rx="7.5" fill="white" stroke="#D9E4F5"/>
  <path d="M19.8 5L10 19.1H17.2L14.2 29L24 14.8H16.9L19.8 5Z" fill="#144CDD"/>
  <path d="M38.5 22.8C36.9 22.8 35.6 22.5 34.7 21.9C33.7 21.3 33.2 20.3 33.2 19.1H37.3C37.4 19.5 37.5 19.8 37.8 20C38.1 20.2 38.5 20.3 39.1 20.3C39.5 20.3 39.9 20.2 40.2 20.1C40.5 19.9 40.6 19.7 40.6 19.4C40.6 19 40.4 18.8 39.9 18.6C39.5 18.4 38.8 18.2 37.9 18C36.9 17.8 36.1 17.5 35.4 17.2C34.8 16.9 34.3 16.5 33.9 15.9C33.4 15.3 33.2 14.6 33.2 13.6C33.2 12.2 33.7 11.1 34.8 10.3C35.8 9.5 37.2 9.1 38.9 9.1C40.6 9.1 41.9 9.5 42.9 10.2C43.9 10.9 44.4 11.9 44.5 13.2H40.5C40.4 12.8 40.3 12.5 40 12.4C39.8 12.2 39.4 12.1 38.9 12.1C38.5 12.1 38.2 12.2 37.9 12.3C37.7 12.5 37.6 12.7 37.6 13C37.6 13.4 37.8 13.6 38.3 13.8C38.8 14 39.5 14.2 40.4 14.4C41.4 14.7 42.2 14.9 42.8 15.2C43.5 15.5 44 15.9 44.4 16.5C44.9 17.1 45.1 17.9 45.1 18.9C45.1 20.2 44.6 21.1 43.5 21.8C42.4 22.5 40.8 22.8 38.5 22.8Z" fill="#172033"/>
  <path d="M52.4 9.3C54 9.3 55.3 9.8 56.2 10.7C57.1 11.6 57.6 12.8 57.6 14.3C57.6 15.8 57.1 17 56.2 17.9C55.3 18.8 54 19.2 52.4 19.2H50.3V22.6H46.1V9.3H52.4ZM51.8 16C52.3 16 52.7 15.9 53 15.6C53.3 15.3 53.5 14.9 53.5 14.3C53.5 13.7 53.3 13.3 53 13C52.7 12.7 52.3 12.6 51.8 12.6H50.3V16H51.8Z" fill="#172033"/>
  <path d="M66.3 20.6H61.8L61.1 22.6H56.7L61.6 9.3H66.6L71.4 22.6H67L66.3 20.6ZM65.3 17.5L64.1 13.8L62.8 17.5H65.3Z" fill="#172033"/>
  <path d="M79.4 22.6L76.8 17.8H76.4V22.6H72.2V9.3H78.4C79.5 9.3 80.5 9.5 81.2 9.9C82 10.3 82.5 10.8 82.9 11.5C83.3 12.2 83.5 12.9 83.5 13.8C83.5 14.7 83.2 15.6 82.7 16.3C82.2 17 81.5 17.5 80.5 17.8L83.5 22.6H79.4ZM76.4 15H78.1C78.5 15 78.9 14.9 79.1 14.7C79.3 14.5 79.4 14.2 79.4 13.8C79.4 13.4 79.3 13.1 79.1 12.9C78.9 12.7 78.5 12.6 78.1 12.6H76.4V15Z" fill="#172033"/>
  <path d="M92.6 22.6L88.4 16.9V22.6H84.2V9.3H88.4V14.8L92.5 9.3H97.3L92.2 15.7L97.6 22.6H92.6Z" fill="#172033"/>
  <path d="M102.4 19.2H108V22.6H97.8V19.4L103.3 12.7H97.8V9.3H108V12.5L102.4 19.2Z" fill="#172033"/>
</svg>
